{
	"asset":{
		"version":"2.0",
		"generator":"Created using the official Cinema 4D glTF Exporter 1.000x284978"
	},
	"scenes":[{
		"nodes":[0]
	}],
	"nodes":[{
		"name":"Remesh.1",
		"mesh":0,
		"translation":[-1.2458142042160035,
		-4.533955097198486,
		-11.720553398132325],
		"rotation":[0.0,
		-0.00047851676936261356,
		0.0,
		0.9999998807907105],
		"scale":[1.0,
		1.0,
		1.0]
	}],
	"meshes":[{
		"name":"Remesh.1",
		"primitives":[{
			"attributes":{
				"POSITION":1,
				"NORMAL":2,
				"TEXCOORD_0":3
			},
			"indices":0
		}]
	}],
	"accessors":[{
		"bufferView":0,
		"type":"SCALAR",
		"min":[0],
		"componentType":5123,
		"count":149376,
		"byteOffset":0,
		"max":[27097]
	},
	{
		"bufferView":1,
		"type":"VEC3",
		"min":[-9.633458137512207,
		-20.942216873168947,
		-10.190264701843262],
		"componentType":5126,
		"count":27098,
		"byteOffset":0,
		"max":[14.40239429473877,
		20.465375900268556,
		17.850643157958986]
	},
	{
		"bufferView":1,
		"type":"VEC3",
		"min":[-0.9999253153800964,
		-0.9999916553497315,
		-0.9999775886535645],
		"componentType":5126,
		"count":27098,
		"byteOffset":12,
		"max":[0.9999464154243469,
		0.9999798536300659,
		0.9999521374702454]
	},
	{
		"bufferView":1,
		"type":"VEC2",
		"min":[0.007717452012002468,
		0.008462058380246163],
		"componentType":5126,
		"count":27098,
		"byteOffset":24,
		"max":[0.9894416332244873,
		0.9917339086532593]
	}],
	"bufferViews":[{
		"buffer":0,
		"byteOffset":0,
		"byteLength":298752,
		"target":34963
	},
	{
		"buffer":0,
		"byteOffset":298752,
		"byteLength":867136,
		"target":34962,
		"byteStride":32
	}],
	"buffers":[{
		"uri":"data:application/octet-stream;base64,",
		"byteLength":1165888
	}]
}