{
	"scenes":[{
		"nodes":[0]
	}],
	"asset":{
		"version":"2.0",
		"generator":"Created using the official Cinema 4D glTF Exporter 1.000x284978"
	},
	"materials":[{
		"pbrMetallicRoughness":{
			"baseColorTexture":{
				"index":0
			},
			"baseColorFactor":[1.0,
			1.0,
			1.0,
			1.0],
			"metallicFactor":0.0,
			"roughnessFactor":0.5
		},
		"emissiveFactor":[0.0,
		0.0,
		0.0],
		"alphaMode":"OPAQUE",
		"doubleSided":false,
		"name":"Mat"
	}],
	"nodes":[{
		"name":"Remesh",
		"translation":[-8.929250717163086,
		-100.8460693359375,
		-0.10274525731801987],
		"rotation":[0.0,
		0.0,
		0.0,
		-1.0],
		"scale":[1.0,
		1.0,
		1.0],
		"children":[1]
	},
	{
		"name":"HAND_remesh",
		"mesh":0,
		"translation":[-3.100090980529785,
		-28.52423858642578,
		-1.381077527999878],
		"rotation":[0.0,
		0.0,
		0.0,
		-1.0],
		"scale":[1.0,
		1.0,
		1.0]
	}],
	"meshes":[{
		"name":"HAND_remesh",
		"primitives":[{
			"attributes":{
				"POSITION":1,
				"NORMAL":2,
				"TEXCOORD_0":3
			},
			"indices":0,
			"material":0
		}]
	}],
	"accessors":[{
		"bufferView":0,
		"type":"SCALAR",
		"componentType":5123,
		"count":114570,
		"byteOffset":0,
		"min":[0],
		"max":[19135]
	},
	{
		"bufferView":1,
		"type":"VEC3",
		"componentType":5126,
		"count":19136,
		"byteOffset":0,
		"min":[1.2567182779312134,
		24.8508243560791,
		-0.2908269166946411],
		"max":[4.323238849639893,
		33.27903366088867,
		4.89668607711792]
	},
	{
		"bufferView":1,
		"type":"VEC3",
		"componentType":5126,
		"count":19136,
		"byteOffset":12,
		"min":[-0.9999974966049194,
		-1.0,
		-0.9999985694885254],
		"max":[0.9999842643737793,
		0.9997830390930176,
		0.9999898672103882]
	},
	{
		"bufferView":1,
		"type":"VEC2",
		"componentType":5126,
		"count":19136,
		"byteOffset":24,
		"min":[0.0,
		0.0006782291457056999],
		"max":[1.0000001192092896,
		0.9996247291564941]
	}],
	"bufferViews":[{
		"buffer":0,
		"byteOffset":0,
		"byteLength":229140,
		"target":34963
	},
	{
		"buffer":0,
		"byteOffset":229140,
		"byteLength":612352,
		"byteStride":32,
		"target":34962
	}],
	"buffers":[{
		"uri":"data:application/octet-stream;base64,",
		"byteLength":841492
	}],
	"images":[{
		"uri":"data:image/jpeg;base64,"
	}],
	"samplers":[{
		"magFilter":9729,
		"minFilter":9729,
		"wrapS":10497,
		"wrapT":10497
	}],
	"textures":[{
		"sampler":0,
		"source":0
	}]
}