{
	"asset":{
		"version":"2.0",
		"generator":"Maxon Cinema 4D 2023.1.3 (#200000219)"
	},
	"scenes":[{
		"nodes":[0]
	}],
	"nodes":[{
		"name":"Cylinder",
		"mesh":0,
		"translation":[0.0,
		0.0,
		0.0],
		"rotation":[-0.7071067690849304,
		0.0,
		0.0,
		-0.7071067690849304],
		"scale":[1.0,
		1.0,
		1.0]
	}],
	"meshes":[{
		"name":"Cylinder",
		"primitives":[{
			"attributes":{
				"POSITION":1,
				"NORMAL":2,
				"TEXCOORD_0":3
			},
			"indices":0,
			"material":0
		}]
	}],
	"accessors":[{
		"bufferView":0,
		"count":2340,
		"type":"SCALAR",
		"componentType":5123,
		"byteOffset":0,
		"min":[0],
		"max":[456]
	},
	{
		"bufferView":1,
		"count":457,
		"type":"VEC3",
		"componentType":5126,
		"byteOffset":0,
		"min":[-0.13389910757541657,
		-7.497878074645996,
		-7.456803798675537],
		"max":[0.13389910757541657,
		7.497878074645996,
		7.456803798675537]
	},
	{
		"bufferView":1,
		"count":457,
		"type":"VEC3",
		"componentType":5126,
		"byteOffset":12,
		"min":[-1.0,
		-1.0,
		-0.9975732564926148],
		"max":[1.0,
		1.0,
		0.9975732564926148]
	},
	{
		"bufferView":1,
		"count":457,
		"type":"VEC2",
		"componentType":5126,
		"byteOffset":24,
		"min":[0.0,
		0.0],
		"max":[1.0,
		1.0]
	}],
	"bufferViews":[{
		"buffer":0,
		"byteOffset":0,
		"byteLength":4680,
		"target":34963
	},
	{
		"buffer":0,
		"byteOffset":4680,
		"byteLength":14624,
		"target":34962,
		"byteStride":32
	}],
	"buffers":[{
		"uri":"data:application/octet-stream;base64,",
		"byteLength":19304
	}],
	"images":[{
		"uri":"data:image/jpeg;base64,"
	}],
	"samplers":[{
		"magFilter":9729,
		"minFilter":9729,
		"wrapS":10497,
		"wrapT":10497
	}],
	"textures":[{
		"sampler":0,
		"source":0
	}],
	"materials":[{
		"alphaMode":"OPAQUE",
		"pbrMetallicRoughness":{
			"metallicFactor":0.0,
			"baseColorTexture":{
				"index":0
			},
			"roughnessFactor":0.5,
			"baseColorFactor":[1.0,
			1.0,
			1.0,
			1.0]
		},
		"emissiveFactor":[0.0,
		0.0,
		0.0],
		"doubleSided":true,
		"name":"Mat"
	}]
}