{
	"scenes":[{
		"nodes":[0]
	}],
	"asset":{
		"version":"2.0",
		"generator":"Created using the official Cinema 4D glTF Exporter 1.000x284978"
	},
	"materials":[{
		"pbrMetallicRoughness":{
			"baseColorTexture":{
				"index":0
			},
			"baseColorFactor":[1.0,
			1.0,
			1.0,
			1.0],
			"metallicFactor":0.0,
			"roughnessFactor":0.5
		},
		"emissiveFactor":[0.0,
		0.0,
		0.0],
		"alphaMode":"OPAQUE",
		"doubleSided":false,
		"name":"Mat"
	}],
	"nodes":[{
		"name":"Remesh",
		"translation":[-8.929250717163086,
		-99.43733215332031,
		-0.10274525731801987],
		"rotation":[0.0,
		0.0,
		0.0,
		-1.0],
		"scale":[1.0,
		1.0,
		1.0],
		"children":[1]
	},
	{
		"name":"HAND_remesh",
		"mesh":0,
		"translation":[0.0,
		-3.807481527328491,
		0.0],
		"rotation":[0.0,
		0.0,
		0.0,
		-1.0],
		"scale":[1.0,
		1.0,
		1.0]
	}],
	"meshes":[{
		"name":"HAND_remesh",
		"primitives":[{
			"attributes":{
				"POSITION":1,
				"NORMAL":2,
				"TEXCOORD_0":3
			},
			"indices":0,
			"material":0
		}]
	}],
	"accessors":[{
		"bufferView":0,
		"type":"SCALAR",
		"componentType":5123,
		"count":116874,
		"byteOffset":0,
		"min":[0],
		"max":[19523]
	},
	{
		"bufferView":1,
		"type":"VEC3",
		"componentType":5126,
		"count":19524,
		"byteOffset":0,
		"min":[-25.616912841796876,
		-47.20740509033203,
		-23.22273826599121],
		"max":[16.984668731689454,
		69.84200286865235,
		48.81599044799805]
	},
	{
		"bufferView":1,
		"type":"VEC3",
		"componentType":5126,
		"count":19524,
		"byteOffset":12,
		"min":[-0.9999998807907105,
		-1.0,
		-0.9999970197677612],
		"max":[0.9999715089797974,
		0.9998868107795715,
		0.9999873638153076]
	},
	{
		"bufferView":1,
		"type":"VEC2",
		"componentType":5126,
		"count":19524,
		"byteOffset":24,
		"min":[0.0,
		0.00007490941789001226],
		"max":[1.0000001192092896,
		0.9991397857666016]
	}],
	"bufferViews":[{
		"buffer":0,
		"byteOffset":0,
		"byteLength":233748,
		"target":34963
	},
	{
		"buffer":0,
		"byteOffset":233748,
		"byteLength":624768,
		"byteStride":32,
		"target":34962
	}],
	"buffers":[{
		"uri":"data:application/octet-stream;base64,",
		"byteLength":858516
	}],
	"images":[{
		"uri":"data:image/jpeg;base64,"
	}],
	"samplers":[{
		"magFilter":9729,
		"minFilter":9729,
		"wrapS":10497,
		"wrapT":10497
	}],
	"textures":[{
		"sampler":0,
		"source":0
	}]
}