{
	"asset":{
		"version":"2.0",
		"generator":"Created using the official Cinema 4D glTF Exporter 1.000x284978"
	},
	"scenes":[{
		"nodes":[0]
	}],
	"nodes":[{
		"name":"Remesh",
		"translation":[0.0,
		0.0,
		0.0],
		"rotation":[-0.7071067690849304,
		0.0,
		0.0,
		-0.7071067690849304],
		"scale":[1.0,
		1.0,
		1.0],
		"children":[1]
	},
	{
		"name":"Default_remesh",
		"mesh":0,
		"translation":[0.0,
		0.0,
		0.0],
		"rotation":[0.5,
		-0.5,
		0.5,
		-0.5],
		"scale":[1.0,
		1.0,
		1.0]
	}],
	"meshes":[{
		"name":"Default_remesh",
		"primitives":[{
			"attributes":{
				"POSITION":1
			},
			"indices":0
		}]
	}],
	"accessors":[{
		"bufferView":0,
		"type":"SCALAR",
		"componentType":5123,
		"max":[7169],
		"count":37023,
		"byteOffset":0,
		"min":[0]
	},
	{
		"bufferView":1,
		"type":"VEC3",
		"componentType":5126,
		"max":[3.8952956199645998,
		5.2764692306518559,
		10.30692195892334],
		"count":7170,
		"byteOffset":0,
		"min":[-3.894981861114502,
		-4.593597888946533,
		-11.1144380569458]
	}],
	"bufferViews":[{
		"buffer":0,
		"byteOffset":0,
		"byteLength":74046,
		"target":34963
	},
	{
		"buffer":0,
		"byteOffset":74048,
		"byteLength":86040,
		"target":34962
	}],
	"buffers":[{
		"uri":"data:application/octet-stream;base64,",
		"byteLength":160088
	}]
}