{
	"asset":{
		"version":"2.0",
		"generator":"Created using the official Cinema 4D glTF Exporter 1.000x284978"
	},
	"scenes":[{
		"nodes":[0,
		1]
	}],
	"nodes":[{
		"name":"Remesh.1",
		"mesh":0,
		"translation":[3.386726140975952,
		-3.9806289672851564,
		-4.515075206756592],
		"rotation":[0.008484331890940667,
		0.0,
		0.0,
		-0.9999639987945557],
		"scale":[1.0,
		1.0,
		1.0]
	},
	{
		"name":"Remesh",
		"mesh":1,
		"translation":[0.0,
		-3.9806289672851564,
		-4.515075206756592],
		"rotation":[0.008484331890940667,
		0.0,
		0.0,
		-0.9999639987945557],
		"scale":[1.0,
		1.0,
		1.0]
	}],
	"meshes":[{
		"name":"Remesh.1",
		"primitives":[{
			"attributes":{
				"POSITION":1,
				"NORMAL":2,
				"TEXCOORD_0":3
			},
			"indices":0
		}]
	},
	{
		"name":"Remesh",
		"primitives":[{
			"attributes":{
				"POSITION":5,
				"NORMAL":6,
				"TEXCOORD_0":7
			},
			"indices":4
		}]
	}],
	"accessors":[{
		"bufferView":0,
		"type":"SCALAR",
		"min":[0],
		"componentType":5123,
		"count":102348,
		"byteOffset":0,
		"max":[20198]
	},
	{
		"bufferView":1,
		"type":"VEC3",
		"min":[-9.244682312011719,
		-18.364946365356447,
		-8.262903213500977],
		"componentType":5126,
		"count":20199,
		"byteOffset":0,
		"max":[9.227246284484864,
		15.305916786193848,
		10.954452514648438]
	},
	{
		"bufferView":1,
		"type":"VEC3",
		"min":[-0.9999997615814209,
		-0.9999997615814209,
		-0.9999187588691711],
		"componentType":5126,
		"count":20199,
		"byteOffset":12,
		"max":[0.9999994039535523,
		0.9999340176582336,
		0.9999542832374573]
	},
	{
		"bufferView":1,
		"type":"VEC2",
		"min":[-1.3903497457504273,
		-0.006133859045803547],
		"componentType":5126,
		"count":20199,
		"byteOffset":24,
		"max":[1.0,
		8.116779327392579]
	},
	{
		"bufferView":2,
		"type":"SCALAR",
		"min":[0],
		"componentType":5123,
		"count":102348,
		"byteOffset":0,
		"max":[20198]
	},
	{
		"bufferView":3,
		"type":"VEC3",
		"min":[-9.244682312011719,
		-18.364946365356447,
		-8.262903213500977],
		"componentType":5126,
		"count":20199,
		"byteOffset":0,
		"max":[9.227246284484864,
		15.305916786193848,
		10.954452514648438]
	},
	{
		"bufferView":3,
		"type":"VEC3",
		"min":[-0.9999997615814209,
		-0.9999997615814209,
		-0.9999187588691711],
		"componentType":5126,
		"count":20199,
		"byteOffset":12,
		"max":[0.9999994039535523,
		0.9999340176582336,
		0.9999542832374573]
	},
	{
		"bufferView":3,
		"type":"VEC2",
		"min":[-1.3903497457504273,
		-0.006133859045803547],
		"componentType":5126,
		"count":20199,
		"byteOffset":24,
		"max":[1.0,
		8.116779327392579]
	}],
	"bufferViews":[{
		"buffer":0,
		"byteOffset":0,
		"byteLength":204696,
		"target":34963
	},
	{
		"buffer":0,
		"byteOffset":204696,
		"byteLength":646368,
		"target":34962,
		"byteStride":32
	},
	{
		"buffer":1,
		"byteOffset":0,
		"byteLength":204696,
		"target":34963
	},
	{
		"buffer":1,
		"byteOffset":204696,
		"byteLength":646368,
		"target":34962,
		"byteStride":32
	}],
	"buffers":[{
		"uri":"data:application/octet-stream;base64,",
		"byteLength":851064
	},
	{
		"uri":"data:application/octet-stream;base64,",
		"byteLength":851064
	}]
}