{
	"scenes":[{
		"nodes":[0]
	}],
	"asset":{
		"version":"2.0",
		"generator":"Created using the official Cinema 4D glTF Exporter 1.000x284978"
	},
	"materials":[{
		"pbrMetallicRoughness":{
			"baseColorTexture":{
				"index":0
			},
			"baseColorFactor":[1.0,
			1.0,
			1.0,
			1.0],
			"metallicFactor":0.0,
			"roughnessFactor":0.5
		},
		"emissiveFactor":[0.0,
		0.0,
		0.0],
		"alphaMode":"OPAQUE",
		"doubleSided":false,
		"name":"Mat"
	}],
	"nodes":[{
		"name":"Remesh",
		"translation":[-8.929250717163086,
		-171.78656005859376,
		-0.10274525731801987],
		"rotation":[0.0,
		0.0,
		0.0,
		-1.0],
		"scale":[1.0,
		1.0,
		1.0],
		"children":[1]
	},
	{
		"name":"HAND_remesh",
		"mesh":0
	}],
	"meshes":[{
		"name":"HAND_remesh",
		"primitives":[{
			"attributes":{
				"POSITION":1,
				"NORMAL":2,
				"TEXCOORD_0":3
			},
			"indices":0,
			"material":0
		}]
	}],
	"accessors":[{
		"bufferView":0,
		"type":"SCALAR",
		"componentType":5123,
		"count":154764,
		"byteOffset":0,
		"min":[0],
		"max":[25850]
	},
	{
		"bufferView":1,
		"type":"VEC3",
		"componentType":5126,
		"count":25851,
		"byteOffset":0,
		"min":[-125.65399169921875,
		-170.54124450683595,
		-113.93348693847656],
		"max":[83.34492492675781,
		403.8296813964844,
		239.59262084960938]
	},
	{
		"bufferView":1,
		"type":"VEC3",
		"componentType":5126,
		"count":25851,
		"byteOffset":12,
		"min":[-0.9999971389770508,
		-1.0,
		-0.9999988079071045],
		"max":[0.9999688863754273,
		0.999965488910675,
		0.9999946355819702]
	},
	{
		"bufferView":1,
		"type":"VEC2",
		"componentType":5126,
		"count":25851,
		"byteOffset":24,
		"min":[0.0,
		0.00023163927835412323],
		"max":[1.0000001192092896,
		0.9999456405639648]
	}],
	"bufferViews":[{
		"buffer":0,
		"byteOffset":0,
		"byteLength":309528,
		"target":34963
	},
	{
		"buffer":0,
		"byteOffset":309528,
		"byteLength":827232,
		"byteStride":32,
		"target":34962
	}],
	"buffers":[{
		"uri":"data:application/octet-stream;base64,",
		"byteLength":1136760
	}],
	"images":[{
		"uri":"data:image/jpeg;base64,"
	}],
	"samplers":[{
		"magFilter":9729,
		"minFilter":9729,
		"wrapS":10497,
		"wrapT":10497
	}],
	"textures":[{
		"sampler":0,
		"source":0
	}]
}