{
	"scenes":[{
		"nodes":[0]
	}],
	"asset":{
		"version":"2.0",
		"generator":"Created using the official Cinema 4D glTF Exporter 1.000x284978"
	},
	"materials":[{
		"pbrMetallicRoughness":{
			"baseColorTexture":{
				"index":0
			},
			"baseColorFactor":[1.0,
			1.0,
			1.0,
			1.0],
			"metallicFactor":0.0,
			"roughnessFactor":0.5
		},
		"emissiveFactor":[0.0,
		0.0,
		0.0],
		"alphaMode":"OPAQUE",
		"doubleSided":false,
		"name":"Mat"
	}],
	"nodes":[{
		"name":"HAND_remesh",
		"mesh":0
	}],
	"meshes":[{
		"name":"HAND_remesh",
		"primitives":[{
			"attributes":{
				"POSITION":1,
				"NORMAL":2,
				"TEXCOORD_0":3
			},
			"indices":0,
			"material":0
		}]
	}],
	"accessors":[{
		"bufferView":0,
		"type":"SCALAR",
		"componentType":5123,
		"count":58410,
		"byteOffset":0,
		"min":[0],
		"max":[9780]
	},
	{
		"bufferView":1,
		"type":"VEC3",
		"componentType":5126,
		"count":9781,
		"byteOffset":0,
		"min":[-7.399176597595215,
		-14.741317749023438,
		-6.708042144775391],
		"max":[4.9068169593811039,
		19.079994201660158,
		14.106447219848633]
	},
	{
		"bufferView":1,
		"type":"VEC3",
		"componentType":5126,
		"count":9781,
		"byteOffset":12,
		"min":[-0.9999978542327881,
		-1.0,
		-0.999991774559021],
		"max":[0.9998964667320252,
		0.9999338984489441,
		0.999993085861206]
	},
	{
		"bufferView":1,
		"type":"VEC2",
		"componentType":5126,
		"count":9781,
		"byteOffset":24,
		"min":[0.0,
		0.00043925998033955693],
		"max":[1.0000001192092896,
		0.9998092651367188]
	}],
	"bufferViews":[{
		"buffer":0,
		"byteOffset":0,
		"byteLength":116820,
		"target":34963
	},
	{
		"buffer":0,
		"byteOffset":116820,
		"byteLength":312992,
		"byteStride":32,
		"target":34962
	}],
	"buffers":[{
		"uri":"data:application/octet-stream;base64,",
		"byteLength":429812
	}],
	"images":[{
		"uri":"data:image/jpeg;base64,"
	}],
	"samplers":[{
		"magFilter":9729,
		"minFilter":9729,
		"wrapS":10497,
		"wrapT":10497
	}],
	"textures":[{
		"sampler":0,
		"source":0
	}]
}