{
	"asset":{
		"version":"2.0",
		"generator":"Created using the official Cinema 4D glTF Exporter 1.000x284978"
	},
	"scenes":[{
		"nodes":[0]
	}],
	"nodes":[{
		"name":"Remesh",
		"translation":[0.0,
		0.0,
		0.0],
		"rotation":[-0.7071067690849304,
		0.0,
		0.0,
		-0.7071067690849304],
		"scale":[1.0,
		1.0,
		1.0],
		"children":[1]
	},
	{
		"name":"Default_remesh",
		"mesh":0,
		"translation":[0.0,
		0.0,
		0.0],
		"rotation":[0.5,
		-0.5,
		0.5,
		-0.5],
		"scale":[1.0,
		1.0,
		1.0]
	}],
	"meshes":[{
		"name":"Default_remesh",
		"primitives":[{
			"attributes":{
				"POSITION":1
			},
			"indices":0
		}]
	}],
	"accessors":[{
		"bufferView":0,
		"type":"SCALAR",
		"componentType":5123,
		"max":[7293],
		"count":37542,
		"byteOffset":0,
		"min":[0]
	},
	{
		"bufferView":1,
		"type":"VEC3",
		"componentType":5126,
		"max":[8.967347145080567,
		12.287875175476075,
		23.72752571105957],
		"count":7294,
		"byteOffset":0,
		"min":[-8.96662425994873,
		-10.595320701599121,
		-25.58650779724121]
	}],
	"bufferViews":[{
		"buffer":0,
		"byteOffset":0,
		"byteLength":75084,
		"target":34963
	},
	{
		"buffer":0,
		"byteOffset":75084,
		"byteLength":87528,
		"target":34962
	}],
	"buffers":[{
		"uri":"data:application/octet-stream;base64,",
		"byteLength":162612
	}]
}