{
	"asset":{
		"version":"2.0",
		"generator":"Created using the official Cinema 4D glTF Exporter 1.000x284978"
	},
	"scenes":[{
		"nodes":[0]
	}],
	"nodes":[{
		"name":"Sweep",
		"mesh":0
	}],
	"meshes":[{
		"name":"Sweep",
		"primitives":[{
			"attributes":{
				"POSITION":1,
				"NORMAL":2,
				"TEXCOORD_0":3
			},
			"indices":0
		}]
	}],
	"accessors":[{
		"bufferView":0,
		"type":"SCALAR",
		"componentType":5123,
		"max":[4300],
		"count":24180,
		"byteOffset":0,
		"min":[0]
	},
	{
		"bufferView":1,
		"type":"VEC3",
		"componentType":5126,
		"max":[22.854568481445314,
		18.22271156311035,
		10.806727409362793],
		"count":4301,
		"byteOffset":0,
		"min":[-20.803359985351564,
		-27.04755401611328,
		-4.958914756774902]
	},
	{
		"bufferView":1,
		"type":"VEC3",
		"componentType":5126,
		"max":[0.9999523758888245,
		0.9999586939811707,
		0.9999817609786987],
		"count":4301,
		"byteOffset":12,
		"min":[-0.9996426701545715,
		-0.9990975856781006,
		-0.9999852180480957]
	},
	{
		"bufferView":1,
		"type":"VEC2",
		"componentType":5126,
		"max":[1.0,
		1.0],
		"count":4301,
		"byteOffset":24,
		"min":[0.0,
		0.0]
	}],
	"bufferViews":[{
		"buffer":0,
		"byteOffset":0,
		"byteLength":48360,
		"target":34963
	},
	{
		"buffer":0,
		"byteOffset":48360,
		"byteLength":137632,
		"target":34962,
		"byteStride":32
	}],
	"buffers":[{
		"uri":"data:application/octet-stream;base64,",
		"byteLength":185992
	}]
}