{
	"asset":{
		"version":"2.0",
		"generator":"Created using the official Cinema 4D glTF Exporter 1.000x284978"
	},
	"scenes":[{
		"nodes":[0]
	}],
	"nodes":[{
		"name":"BEAR_remesh",
		"translation":[-1.5950270891189576,
		-3.2855358123779299,
		0.0],
		"rotation":[0.0,
		0.0,
		0.0,
		-1.0],
		"scale":[1.0,
		1.0,
		1.0],
		"children":[1]
	},
	{
		"mesh":0,
		"name":"BEAR_remesh-eyes"
	}],
	"meshes":[{
		"name":"BEAR_remesh-eyes",
		"primitives":[{
			"attributes":{
				"POSITION":1
			},
			"indices":0,
			"material":0
		}]
	}],
	"accessors":[{
		"bufferView":0,
		"type":"SCALAR",
		"componentType":5123,
		"count":11256,
		"byteOffset":0,
		"min":[0],
		"max":[2050]
	},
	{
		"bufferView":1,
		"type":"VEC3",
		"componentType":5126,
		"count":2051,
		"byteOffset":0,
		"min":[-10.622527122497559,
		-14.289247512817383,
		-7.858726501464844],
		"max":[8.160337448120118,
		16.69977569580078,
		8.365314483642579]
	}],
	"bufferViews":[{
		"buffer":0,
		"byteOffset":0,
		"byteLength":22512,
		"target":34963
	},
	{
		"buffer":0,
		"byteOffset":22512,
		"byteLength":24612,
		"target":34962
	}],
	"buffers":[{
		"uri":"data:application/octet-stream;base64,",
		"byteLength":47124
	}],
	"materials":[{
		"pbrMetallicRoughness":{
			"baseColorFactor":[0.8,
			0.8,
			0.8,
			1.0],
			"metallicFactor":0.23,
			"roughnessFactor":0.13
		},
		"emissiveFactor":[0.22999999999999932,
		0.22999999999999932,
		0.22999999999999932],
		"alphaMode":"OPAQUE",
		"doubleSided":false,
		"name":"eyes"
	}]
}