{
	"asset":{
		"version":"2.0",
		"generator":"Created using the official Cinema 4D glTF Exporter 1.000x284978"
	},
	"scenes":[{
		"nodes":[0]
	}],
	"nodes":[{
		"name":"Remesh",
		"mesh":0,
		"translation":[0.0,
		-3.3882031440734865,
		-4.515075206756592],
		"rotation":[0.0,
		0.0,
		0.0,
		-1.0],
		"scale":[1.0,
		1.0,
		1.0]
	}],
	"meshes":[{
		"name":"Remesh",
		"primitives":[{
			"attributes":{
				"POSITION":1,
				"NORMAL":2,
				"TEXCOORD_0":3
			},
			"indices":0
		}]
	}],
	"accessors":[{
		"bufferView":0,
		"type":"SCALAR",
		"min":[0],
		"componentType":5123,
		"count":102348,
		"byteOffset":0,
		"max":[20198]
	},
	{
		"bufferView":1,
		"type":"VEC3",
		"min":[-9.244682312011719,
		-15.493337631225586,
		-7.984503746032715],
		"componentType":5126,
		"count":20199,
		"byteOffset":0,
		"max":[9.227246284484864,
		18.550369262695314,
		8.5780029296875]
	},
	{
		"bufferView":1,
		"type":"VEC3",
		"min":[-0.9999997615814209,
		-1.0,
		-0.9999990463256836],
		"componentType":5126,
		"count":20199,
		"byteOffset":12,
		"max":[0.9999994039535523,
		1.0,
		0.9999998807907105]
	},
	{
		"bufferView":1,
		"type":"VEC2",
		"min":[-1.3903497457504273,
		-0.006133859045803547],
		"componentType":5126,
		"count":20199,
		"byteOffset":24,
		"max":[1.0,
		8.116779327392579]
	}],
	"bufferViews":[{
		"buffer":0,
		"byteOffset":0,
		"byteLength":204696,
		"target":34963
	},
	{
		"buffer":0,
		"byteOffset":204696,
		"byteLength":646368,
		"target":34962,
		"byteStride":32
	}],
	"buffers":[{
		"uri":"data:application/octet-stream;base64,",
		"byteLength":851064
	}]
}