{
	"asset":{
		"version":"2.0",
		"generator":"Created using the official Cinema 4D glTF Exporter 1.000x284978"
	},
	"scenes":[{
		"nodes":[0]
	}],
	"nodes":[{
		"name":"Default",
		"mesh":0
	}],
	"meshes":[{
		"name":"Default",
		"primitives":[{
			"attributes":{
				"POSITION":1,
				"TEXCOORD_0":2
			},
			"indices":0
		}]
	}],
	"accessors":[{
		"bufferView":0,
		"type":"SCALAR",
		"componentType":5123,
		"max":[6777],
		"count":18492,
		"byteOffset":0,
		"min":[0]
	},
	{
		"bufferView":1,
		"type":"VEC3",
		"componentType":5126,
		"max":[8.268129348754883,
		9.04011344909668,
		16.58321189880371],
		"count":6778,
		"byteOffset":0,
		"min":[-8.268129348754883,
		-9.795472145080567,
		-16.58321189880371]
	},
	{
		"bufferView":1,
		"type":"VEC2",
		"componentType":5126,
		"max":[0.9939000010490418,
		0.9921000003814697],
		"count":6778,
		"byteOffset":12,
		"min":[0.00570000009611249,
		0.004599999636411667]
	}],
	"bufferViews":[{
		"buffer":0,
		"byteOffset":0,
		"byteLength":36984,
		"target":34963
	},
	{
		"buffer":0,
		"byteOffset":36984,
		"byteLength":135560,
		"target":34962,
		"byteStride":20
	}],
	"buffers":[{
		"uri":"data:application/octet-stream;base64,",
		"byteLength":172544
	}]
}