{
	"scenes":[{
		"nodes":[0]
	}],
	"asset":{
		"version":"2.0",
		"generator":"Created using the official Cinema 4D glTF Exporter 1.000x284978"
	},
	"materials":[{
		"pbrMetallicRoughness":{
			"baseColorTexture":{
				"index":0
			},
			"baseColorFactor":[1.0,
			1.0,
			1.0,
			1.0],
			"metallicFactor":0.0,
			"roughnessFactor":0.5
		},
		"emissiveFactor":[0.0,
		0.0,
		0.0],
		"alphaMode":"OPAQUE",
		"doubleSided":false,
		"name":"Mat"
	}],
	"nodes":[{
		"name":"Remesh",
		"translation":[-8.929250717163086,
		-100.8460693359375,
		-0.10274525731801987],
		"rotation":[0.0,
		0.0,
		0.0,
		-1.0],
		"scale":[1.0,
		1.0,
		1.0],
		"children":[1]
	},
	{
		"name":"HAND_remesh",
		"mesh":0,
		"translation":[-19.89133644104004,
		-183.02212524414063,
		-8.861506462097168],
		"rotation":[0.0,
		0.0,
		0.0,
		-1.0],
		"scale":[1.0,
		1.0,
		1.0]
	}],
	"meshes":[{
		"name":"HAND_remesh",
		"primitives":[{
			"attributes":{
				"POSITION":1,
				"NORMAL":2,
				"TEXCOORD_0":3
			},
			"indices":0,
			"material":0
		}]
	}],
	"accessors":[{
		"bufferView":0,
		"type":"SCALAR",
		"componentType":5123,
		"count":114828,
		"byteOffset":0,
		"min":[0],
		"max":[19182]
	},
	{
		"bufferView":1,
		"type":"VEC3",
		"componentType":5126,
		"count":19183,
		"byteOffset":0,
		"min":[8.06014633178711,
		159.4520721435547,
		-1.8672122955322266],
		"max":[27.738866806030275,
		213.5305633544922,
		31.419038772583009]
	},
	{
		"bufferView":1,
		"type":"VEC3",
		"componentType":5126,
		"count":19183,
		"byteOffset":12,
		"min":[-0.9999983310699463,
		-1.0,
		-1.0],
		"max":[0.9999986886978149,
		0.9999646544456482,
		0.9999943971633911]
	},
	{
		"bufferView":1,
		"type":"VEC2",
		"componentType":5126,
		"count":19183,
		"byteOffset":24,
		"min":[0.0,
		0.0005712764104828239],
		"max":[1.0,
		0.9998940229415894]
	}],
	"bufferViews":[{
		"buffer":0,
		"byteOffset":0,
		"byteLength":229656,
		"target":34963
	},
	{
		"buffer":0,
		"byteOffset":229656,
		"byteLength":613856,
		"byteStride":32,
		"target":34962
	}],
	"buffers":[{
		"uri":"data:application/octet-stream;base64,",
		"byteLength":843512
	}],
	"images":[{
		"uri":"data:image/jpeg;base64,"
	}],
	"samplers":[{
		"magFilter":9729,
		"minFilter":9729,
		"wrapS":10497,
		"wrapT":10497
	}],
	"textures":[{
		"sampler":0,
		"source":0
	}]
}