{
	"asset":{
		"version":"2.0",
		"generator":"Created using the official Cinema 4D glTF Exporter 1.000x284978"
	},
	"scenes":[{
		"nodes":[0]
	}],
	"buffers":[{
		"uri":"data:application/octet-stream;base64,",
		"byteLength":8020
	},
	{
		"uri":"data:application/octet-stream;base64,",
		"byteLength":66064
	}],
	"nodes":[{
		"name":"Null",
		"translation":[0.0,
		0.0,
		0.0],
		"rotation":[0.0,
		-0.9177546501159668,
		0.0,
		-0.39714789390563967],
		"scale":[1.0,
		1.0,
		1.0],
		"children":[1]
	},
	{
		"name":"Sphere",
		"mesh":0,
		"translation":[-2.813049793243408,
		0.0,
		-3.9968028886505639e-15],
		"rotation":[0.0,
		0.0,
		0.0,
		-1.0],
		"scale":[1.0,
		1.0,
		1.0]
	}],
	"meshes":[{
		"name":"Sphere",
		"primitives":[{
			"attributes":{
				"POSITION":3,
				"NORMAL":4,
				"TEXCOORD_0":5
			},
			"indices":2,
			"material":0
		}]
	}],
	"accessors":[{
		"bufferView":0,
		"type":"SCALAR",
		"componentType":5126,
		"count":401,
		"byteOffset":0,
		"min":[0.0],
		"max":[13.333333015441895]
	},
	{
		"bufferView":0,
		"type":"VEC4",
		"componentType":5126,
		"count":401,
		"byteOffset":1604,
		"min":[0.0,
		-1.0,
		0.0,
		-1.0],
		"max":[0.0,
		0.0,
		0.0,
		1.0]
	},
	{
		"bufferView":1,
		"type":"SCALAR",
		"componentType":5123,
		"count":8424,
		"byteOffset":0,
		"min":[0],
		"max":[1537]
	},
	{
		"bufferView":2,
		"type":"VEC3",
		"componentType":5126,
		"count":1538,
		"byteOffset":0,
		"min":[-15.714041709899903,
		-15.740673065185547,
		-15.687456130981446],
		"max":[15.714041709899903,
		15.740673065185547,
		15.687456130981446]
	},
	{
		"bufferView":2,
		"type":"VEC3",
		"componentType":5126,
		"count":1538,
		"byteOffset":12,
		"min":[-0.9983091950416565,
		-1.0,
		-0.9966246485710144],
		"max":[0.9983091950416565,
		1.0,
		0.9966246485710144]
	},
	{
		"bufferView":2,
		"type":"VEC2",
		"componentType":5126,
		"count":1538,
		"byteOffset":24,
		"min":[0.0,
		0.0],
		"max":[1.0,
		1.0]
	}],
	"bufferViews":[{
		"buffer":0,
		"byteOffset":0,
		"byteLength":8020
	},
	{
		"buffer":1,
		"byteOffset":0,
		"byteLength":16848,
		"target":34963
	},
	{
		"buffer":1,
		"byteOffset":16848,
		"byteLength":49216,
		"target":34962,
		"byteStride":32
	}],
	"materials":[{
		"name":"Mat",
		"pbrMetallicRoughness":{
			"baseColorFactor":[0.8,
			0.8,
			0.8,
			1.0],
			"metallicFactor":0.0,
			"roughnessFactor":0.5
		},
		"emissiveFactor":[0.0,
		0.0,
		0.0],
		"alphaMode":"OPAQUE",
		"doubleSided":false
	}],
	"animations":[{
		"samplers":[{
			"input":0,
			"interpolation":"LINEAR",
			"output":1
		}],
		"channels":[{
			"sampler":0,
			"target":{
				"node":0,
				"path":"rotation"
			}
		}]
	}]
}