{
	"scenes":[{
		"nodes":[0]
	}],
	"asset":{
		"generator":"Created using the official Cinema 4D glTF Exporter 1.000x284978",
		"version":"2.0"
	},
	"nodes":[{
		"name":"LFT HAND",
		"translation":[0.71579509973526,
		-6.888234615325928,
		23.06052589416504],
		"rotation":[0.0,
		0.0,
		0.0,
		-1.0],
		"scale":[1.0,
		1.0,
		1.0],
		"children":[1]
	},
	{
		"name":"LFT HAND-eyes",
		"mesh":0
	}],
	"meshes":[{
		"name":"LFT HAND-eyes",
		"primitives":[{
			"attributes":{
				"POSITION":1,
				"NORMAL":2
			},
			"indices":0,
			"material":0
		}]
	}],
	"accessors":[{
		"bufferView":0,
		"type":"SCALAR",
		"componentType":5123,
		"count":7104,
		"byteOffset":0,
		"min":[0],
		"max":[1200]
	},
	{
		"bufferView":1,
		"type":"VEC3",
		"componentType":5126,
		"count":1201,
		"byteOffset":0,
		"min":[-17.684349060058595,
		-8.520306587219239,
		-28.41039276123047],
		"max":[10.341535568237305,
		21.751205444335939,
		-12.8890962600708]
	},
	{
		"bufferView":1,
		"type":"VEC3",
		"componentType":5126,
		"count":1201,
		"byteOffset":12,
		"min":[-1.0,
		-0.9995625615119934,
		-0.9999688267707825],
		"max":[0.9999688267707825,
		0.9994375705718994,
		0.9999688267707825]
	}],
	"bufferViews":[{
		"buffer":0,
		"byteOffset":0,
		"byteLength":14208,
		"target":34963
	},
	{
		"buffer":0,
		"byteOffset":14208,
		"byteLength":28824,
		"target":34962,
		"byteStride":24
	}],
	"buffers":[{
		"uri":"data:application/octet-stream;base64,",
		"byteLength":43032
	}],
	"materials":[{
		"pbrMetallicRoughness":{
			"baseColorFactor":[0.8,
			0.8,
			0.8,
			1.0],
			"metallicFactor":0.23,
			"roughnessFactor":0.13
		},
		"emissiveFactor":[0.22999999999999932,
		0.22999999999999932,
		0.22999999999999932],
		"alphaMode":"OPAQUE",
		"doubleSided":false,
		"name":"eyes"
	}]
}